<svg width="894" height="347" viewBox="0 0 894 347" fill="none" xmlns="http://www.w3.org/2000/svg">
<path d="M8.541 242V160.1H20.241V232.757H57.681V242H8.541ZM66.1178 242L96.1868 160.1H108.94L139.009 242H126.49L102.505 174.14L78.4028 242H66.1178ZM79.6898 221.759L82.9658 212.399H121.459L124.735 221.759H79.6898ZM150.678 242V160.1H162.378L204.147 222.929V160.1H215.847V242H204.147L162.378 179.288V242H150.678ZM232.943 242V160.1H258.098C267.614 160.1 275.492 161.777 281.732 165.131C287.972 168.485 292.574 173.243 295.538 179.405C298.58 185.489 300.101 192.743 300.101 201.167C300.101 209.591 298.58 216.845 295.538 222.929C292.574 229.013 287.972 233.732 281.732 237.086C275.57 240.362 267.692 242 258.098 242H232.943ZM244.643 232.172H257.63C265.196 232.172 271.202 230.924 275.648 228.428C280.094 225.932 283.253 222.383 285.125 217.781C287.075 213.101 288.05 207.563 288.05 201.167C288.05 194.693 287.075 189.116 285.125 184.436C283.253 179.756 280.094 176.168 275.648 173.672C271.202 171.176 265.196 169.928 257.63 169.928H244.643V232.172ZM314.181 242V160.1H327.987L355.716 215.441L383.328 160.1H397.251V242H385.551V180.575L360.162 230.534H351.153L325.881 180.692V242H314.181ZM409.005 242L439.074 160.1H451.827L481.896 242H469.377L445.392 174.14L421.29 242H409.005ZM422.577 221.759L425.853 212.399H464.346L467.622 221.759H422.577ZM493.565 242V160.1H521.294C527.768 160.1 533.072 161.192 537.206 163.376C541.34 165.56 544.382 168.485 546.332 172.151C548.36 175.739 549.374 179.834 549.374 184.436C549.374 188.804 548.36 192.86 546.332 196.604C544.382 200.27 541.301 203.234 537.089 205.496C532.877 207.68 527.495 208.772 520.943 208.772H505.265V242H493.565ZM536.621 242L518.954 205.613H531.824L550.193 242H536.621ZM505.265 199.88H520.475C526.247 199.88 530.498 198.476 533.228 195.668C535.958 192.782 537.323 189.116 537.323 184.67C537.323 180.146 535.997 176.558 533.345 173.906C530.693 171.254 526.403 169.928 520.475 169.928H505.265V199.88ZM564.52 242V160.1H576.22V195.668L608.98 160.1H623.605L593.185 192.626L624.19 242H609.916L584.878 201.752L576.22 210.995V242H564.52Z" fill="#415947"/>
<path d="M128.792 323L145.24 278.2H152.216L168.664 323H161.816L148.696 285.88L135.512 323H128.792ZM136.216 311.928L138.008 306.808H159.064L160.856 311.928H136.216ZM175.047 323V278.2H203.335V283.448H181.447V297.784H201.415V302.904H181.447V317.752H203.335V323H175.047ZM226.266 323.768C222.98 323.768 220.1 323.192 217.626 322.04C215.151 320.845 213.231 319.181 211.866 317.048C210.5 314.915 209.818 312.419 209.818 309.56H216.538C216.58 311.181 216.964 312.675 217.69 314.04C218.458 315.363 219.546 316.429 220.954 317.24C222.404 318.008 224.175 318.392 226.266 318.392C228.058 318.392 229.594 318.093 230.874 317.496C232.196 316.899 233.199 316.088 233.882 315.064C234.564 313.997 234.906 312.781 234.906 311.416C234.906 309.837 234.543 308.536 233.818 307.512C233.092 306.488 232.111 305.656 230.874 305.016C229.679 304.333 228.271 303.736 226.65 303.224C225.071 302.712 223.407 302.157 221.658 301.56C218.116 300.408 215.471 298.915 213.722 297.08C212.015 295.245 211.161 292.856 211.161 289.912C211.161 287.395 211.759 285.219 212.954 283.384C214.148 281.507 215.812 280.056 217.946 279.032C220.122 277.965 222.682 277.432 225.626 277.432C228.527 277.432 231.066 277.965 233.242 279.032C235.418 280.099 237.124 281.571 238.362 283.448C239.599 285.325 240.218 287.523 240.218 290.04H233.434C233.434 288.888 233.135 287.757 232.538 286.648C231.94 285.539 231.044 284.643 229.85 283.96C228.655 283.235 227.183 282.872 225.434 282.872C223.983 282.829 222.682 283.064 221.53 283.576C220.378 284.088 219.482 284.835 218.842 285.816C218.202 286.797 217.882 287.971 217.882 289.336C217.882 290.701 218.159 291.811 218.714 292.664C219.311 293.475 220.164 294.179 221.274 294.776C222.383 295.373 223.663 295.928 225.114 296.44C226.607 296.909 228.25 297.443 230.042 298.04C232.26 298.765 234.223 299.661 235.93 300.728C237.679 301.752 239.044 303.096 240.026 304.76C241.05 306.381 241.562 308.472 241.562 311.032C241.562 313.251 240.986 315.32 239.833 317.24C238.682 319.16 236.975 320.739 234.714 321.976C232.452 323.171 229.636 323.768 226.266 323.768ZM258.729 323V283.448H245.481V278.2H278.441V283.448H265.129V323H258.729ZM313.402 323V278.2H319.802V323H313.402ZM284.922 323V278.2H291.322V323H284.922ZM290.234 302.776V297.528H314.81V302.776H290.234ZM329.172 323V278.2H357.46V283.448H335.572V297.784H355.54V302.904H335.572V317.752H357.46V323H329.172ZM376.167 323V283.448H362.919V278.2H395.879V283.448H382.567V323H376.167ZM402.36 323V278.2H408.76V323H402.36ZM437.758 323.768C433.363 323.768 429.566 322.808 426.366 320.888C423.208 318.925 420.755 316.216 419.006 312.76C417.299 309.261 416.446 305.208 416.446 300.6C416.446 296.035 417.299 292.003 419.006 288.504C420.755 285.005 423.208 282.296 426.366 280.376C429.566 278.413 433.363 277.432 437.758 277.432C443.006 277.432 447.251 278.691 450.494 281.208C453.779 283.725 455.87 287.267 456.766 291.832H449.726C449.086 289.187 447.763 287.075 445.757 285.496C443.795 283.917 441.128 283.128 437.758 283.128C434.728 283.128 432.104 283.832 429.885 285.24C427.667 286.648 425.96 288.653 424.766 291.256C423.571 293.859 422.974 296.973 422.974 300.6C422.974 304.227 423.571 307.363 424.766 310.008C425.96 312.611 427.667 314.616 429.885 316.024C432.104 317.389 434.728 318.072 437.758 318.072C441.128 318.072 443.795 317.325 445.757 315.832C447.763 314.296 449.086 312.227 449.726 309.624H456.766C455.87 314.061 453.779 317.539 450.494 320.056C447.251 322.531 443.006 323.768 437.758 323.768ZM479.078 323.768C475.793 323.768 472.913 323.192 470.438 322.04C467.963 320.845 466.043 319.181 464.678 317.048C463.313 314.915 462.63 312.419 462.63 309.56H469.35C469.393 311.181 469.777 312.675 470.502 314.04C471.27 315.363 472.358 316.429 473.766 317.24C475.217 318.008 476.987 318.392 479.078 318.392C480.87 318.392 482.406 318.093 483.686 317.496C485.009 316.899 486.011 316.088 486.694 315.064C487.377 313.997 487.718 312.781 487.718 311.416C487.718 309.837 487.355 308.536 486.63 307.512C485.905 306.488 484.923 305.656 483.686 305.016C482.491 304.333 481.083 303.736 479.462 303.224C477.883 302.712 476.219 302.157 474.47 301.56C470.929 300.408 468.283 298.915 466.534 297.08C464.827 295.245 463.974 292.856 463.974 289.912C463.974 287.395 464.571 285.219 465.766 283.384C466.961 281.507 468.625 280.056 470.758 279.032C472.934 277.965 475.494 277.432 478.438 277.432C481.339 277.432 483.878 277.965 486.054 279.032C488.23 280.099 489.937 281.571 491.174 283.448C492.411 285.325 493.03 287.523 493.03 290.04H486.246C486.246 288.888 485.947 287.757 485.35 286.648C484.753 285.539 483.857 284.643 482.662 283.96C481.467 283.235 479.995 282.872 478.246 282.872C476.795 282.829 475.494 283.064 474.342 283.576C473.19 284.088 472.294 284.835 471.654 285.816C471.014 286.797 470.694 287.971 470.694 289.336C470.694 290.701 470.971 291.811 471.526 292.664C472.123 293.475 472.977 294.179 474.086 294.776C475.195 295.373 476.475 295.928 477.926 296.44C479.419 296.909 481.062 297.443 482.854 298.04C485.073 298.765 487.035 299.661 488.742 300.728C490.491 301.752 491.857 303.096 492.838 304.76C493.862 306.381 494.374 308.472 494.374 311.032C494.374 313.251 493.798 315.32 492.646 317.24C491.494 319.16 489.787 320.739 487.526 321.976C485.265 323.171 482.449 323.768 479.078 323.768Z" fill="#415947"/>
<path d="M559.46 342.404C551.426 342.404 544.484 340.649 538.634 337.139C532.862 333.551 528.377 328.598 525.179 322.28C522.059 315.884 520.499 308.474 520.499 300.05C520.499 291.704 522.059 284.333 525.179 277.937C528.377 271.541 532.862 266.588 538.634 263.078C544.484 259.49 551.426 257.696 559.46 257.696C569.054 257.696 576.815 259.997 582.743 264.599C588.749 269.201 592.571 275.675 594.209 284.021H581.339C580.169 279.185 577.751 275.324 574.085 272.438C570.497 269.552 565.622 268.109 559.46 268.109C553.922 268.109 549.125 269.396 545.069 271.97C541.013 274.544 537.893 278.21 535.709 282.968C533.525 287.726 532.433 293.42 532.433 300.05C532.433 306.68 533.525 312.413 535.709 317.249C537.893 322.007 541.013 325.673 545.069 328.247C549.125 330.743 553.922 331.991 559.46 331.991C565.622 331.991 570.497 330.626 574.085 327.896C577.751 325.088 580.169 321.305 581.339 316.547H594.209C592.571 324.659 588.749 331.016 582.743 335.618C576.815 340.142 569.054 342.404 559.46 342.404ZM608.206 341V259.1H619.906V331.757H657.346V341H608.206ZM671.048 341V259.1H682.748V341H671.048ZM699.841 341V259.1H711.541L753.31 321.929V259.1H765.01V341H753.31L711.541 278.288V341H699.841ZM782.106 341V259.1H793.806V341H782.106ZM846.818 342.404C838.784 342.404 831.842 340.649 825.992 337.139C820.22 333.551 815.735 328.598 812.537 322.28C809.417 315.884 807.857 308.474 807.857 300.05C807.857 291.704 809.417 284.333 812.537 277.937C815.735 271.541 820.22 266.588 825.992 263.078C831.842 259.49 838.784 257.696 846.818 257.696C856.412 257.696 864.173 259.997 870.101 264.599C876.107 269.201 879.929 275.675 881.567 284.021H868.697C867.527 279.185 865.109 275.324 861.443 272.438C857.855 269.552 852.98 268.109 846.818 268.109C841.28 268.109 836.483 269.396 832.427 271.97C828.371 274.544 825.251 278.21 823.067 282.968C820.883 287.726 819.791 293.42 819.791 300.05C819.791 306.68 820.883 312.413 823.067 317.249C825.251 322.007 828.371 325.673 832.427 328.247C836.483 330.743 841.28 331.991 846.818 331.991C852.98 331.991 857.855 330.626 861.443 327.896C865.109 325.088 867.527 321.305 868.697 316.547H881.567C879.929 324.659 876.107 331.016 870.101 335.618C864.173 340.142 856.412 342.404 846.818 342.404Z" fill="#415947"/>
<path d="M668.5 0C668.5 0 675.759 13.0565 679.5 22C683.241 30.9435 684.72 36.2127 687.5 45.5C690.162 54.3928 691.644 59.4047 693.5 68.5C695.863 80.0809 696.65 86.7112 697.5 98.5C698.512 112.522 698.581 120.483 697.5 134.5C696.422 148.488 694.956 156.286 692 170C689.875 179.861 685.5 195 685.5 195C685.5 195 695.639 189.331 702.5 186.5C711.007 182.99 715.987 181.357 725 179.5C728.49 178.781 734 178 734 178C734 178 720.972 185.887 713 191.5C706.39 196.154 702.837 198.981 696.5 204C678.183 218.508 652 244 652 244C652 244 665.005 205.065 671 179.5C673.868 167.271 675.592 160.415 677.5 148C679.191 137 680.641 128.269 681.5 117.5C682.537 104.5 682.404 99.1749 682 85.5C681.601 71.9637 680.403 64.4078 678.5 51C677.052 40.7977 675.99 35.1107 674 25C672.07 15.1915 668.5 0 668.5 0Z" fill="#415947"/>
</svg>
